<svg xmlns="http://www.w3.org/2000/svg" xmlns:xlink="http://www.w3.org/1999/xlink" width="1080" zoomAndPan="magnify" viewBox="0 0 810 809.999993" height="1080" preserveAspectRatio="xMidYMid meet" version="1.0"><defs><g/><clipPath id="080a5e53fb"><path d="M 135.683594 121.976562 L 674.183594 121.976562 L 674.183594 660.472656 L 135.683594 660.472656 Z M 135.683594 121.976562 " clip-rule="nonzero"/></clipPath><clipPath id="f45c746591"><path d="M 135.683594 121.976562 L 674.183594 121.976562 L 674.183594 660.472656 L 135.683594 660.472656 Z M 135.683594 121.976562 " clip-rule="nonzero"/></clipPath></defs><rect x="-81" width="972" fill="#ffffff" y="-80.999999" height="971.999992" fill-opacity="1"/><rect x="-81" width="972" fill="#ffffff" y="-80.999999" height="971.999992" fill-opacity="1"/><rect x="-81" width="972" fill="#ffffff" y="-80.999999" height="971.999992" fill-opacity="1"/><path fill="#070404" d="M 139.277344 125.566406 L 670.59375 125.566406 L 670.59375 656.882812 L 139.277344 656.882812 Z M 139.277344 125.566406 " fill-opacity="1" fill-rule="nonzero"/><g clip-path="url(#080a5e53fb)"><path fill="#000000" d="M 670.59375 660.472656 L 139.277344 660.472656 C 137.265625 660.472656 135.683594 658.894531 135.683594 656.882812 L 135.683594 125.566406 C 135.683594 123.554688 137.265625 121.976562 139.277344 121.976562 L 670.59375 121.976562 C 672.605469 121.976562 674.183594 123.554688 674.183594 125.566406 L 674.183594 656.882812 C 674.183594 658.894531 672.605469 660.472656 670.59375 660.472656 Z M 142.867188 653.292969 L 667.003906 653.292969 L 667.003906 129.15625 L 142.867188 129.15625 Z M 142.867188 653.292969 " fill-opacity="1" fill-rule="nonzero"/></g><g fill="#ffffff" fill-opacity="1"><g transform="translate(223.206557, 561.763648)"><g><path d="M 204.757812 -64.753906 L 24.9375 -64.753906 L 0.875 -5.6875 C -0.4375 -2.1875 1.3125 0 5.6875 0 L 204.320312 0 C 207.382812 0 209.570312 -2.1875 209.570312 -3.9375 L 209.570312 -60.816406 C 209.570312 -63.003906 207.820312 -64.753906 204.757812 -64.753906 Z M 4.8125 -284.824219 L 112.878906 -284.824219 L 51.628906 -131.691406 L 123.378906 -131.691406 L 208.695312 -344.328125 C 209.570312 -347.828125 207.820312 -350.015625 203.882812 -350.015625 L 4.8125 -350.015625 C 2.1875 -350.015625 0 -347.828125 0 -346.078125 L 0 -289.199219 C 0 -287.011719 2.1875 -284.824219 4.8125 -284.824219 Z M 4.8125 -284.824219 "/></g></g></g><g fill="#ffffff" fill-opacity="1"><g transform="translate(443.277916, 561.763648)"><g><path d="M 136.503906 -346.078125 C 136.503906 -347.828125 135.191406 -350.015625 132.128906 -350.015625 L 81.816406 -350.015625 L 2.625 -307.136719 C 0 -305.824219 -0.4375 -304.074219 0.4375 -301.886719 L 19.6875 -261.199219 C 20.5625 -259.011719 23.1875 -258.136719 25.375 -258.574219 C 39.8125 -263.824219 54.691406 -269.949219 70.003906 -275.199219 L 70.003906 -3.9375 C 70.003906 -2.1875 71.316406 0 74.378906 0 L 132.128906 0 C 135.191406 0 136.503906 -2.1875 136.503906 -3.9375 Z M 136.503906 -346.078125 "/></g></g></g><path stroke-linecap="butt" transform="matrix(0.000000000000000047, 0.765206, -0.766836, 0.000000000000000047, 328.961149, 185.525607)" fill="none" stroke-linejoin="miter" d="M 0.00226904 0.000276266 L 110.241194 0.000276266 " stroke="#ffffff" stroke-width="88" stroke-opacity="1" stroke-miterlimit="4"/><path stroke-linecap="butt" transform="matrix(0.000000000000000047, 0.765206, -0.766836, 0.000000000000000047, 328.961149, 502.971859)" fill="none" stroke-linejoin="miter" d="M 0.00104227 0.000276266 L 110.239968 0.000276266 " stroke="#ffffff" stroke-width="88" stroke-opacity="1" stroke-miterlimit="4"/><g clip-path="url(#f45c746591)"><path fill="#ffffff" d="M 135.683594 121.976562 L 135.683594 660.476562 L 674.183594 660.476562 L 674.183594 121.976562 Z M 668.101562 654.390625 L 141.769531 654.390625 L 141.769531 128.058594 L 668.101562 128.058594 Z M 668.101562 654.390625 " fill-opacity="1" fill-rule="nonzero"/></g></svg>